<svg id="Layer_1" data-name="Layer 1" xmlns="http://www.w3.org/2000/svg" viewBox="0 0 795.77 183.67"><defs><style>.cls-1{fill:#cfe2f5;}.cls-2,.cls-3{fill:none;stroke:#ccc;stroke-linecap:round;stroke-linejoin:round;stroke-width:4px;}.cls-3{stroke-dasharray:0 12;}.cls-4{fill:#6ea7e1;}.cls-5{fill:#9fc5ec;}.cls-6{fill:#fff;}.cls-7{font-size:13px;font-family:Roboto;letter-spacing:2px;}</style></defs><title>web</title><circle class="cls-1" cx="105.61" cy="71.34" r="52.11"/><line class="cls-2" x1="150.88" y1="73.21" x2="150.88" y2="73.21"/><line class="cls-3" x1="162.42" y1="72.76" x2="669.42" y2="72.76"/><line class="cls-2" x1="674.88" y1="73.21" x2="674.88" y2="73.21"/><circle class="cls-4" cx="724.66" cy="71.51" r="52.11"/><circle class="cls-5" cx="412.88" cy="71.34" r="52.11"/><path class="cls-6" d="M113.58,95.45h-6.66V53.53l-9.27.59V49.19l15.93-2V95.45Z"/><path class="cls-6" d="M426.94,95.45H399.48V91l13.45-17.6a44.13,44.13,0,0,0,4.59-7.51,14.1,14.1,0,0,0,1.29-5.68,9.55,9.55,0,0,0-1.58-5.78,5.41,5.41,0,0,0-4.65-2.15A6.07,6.07,0,0,0,407.27,55a11.49,11.49,0,0,0-1.84,6.73h-6.5l-0.1-.2a14,14,0,0,1,3.62-10.12,13,13,0,0,1,10.12-4.15q6.1,0,9.53,3.54t3.43,9.48A16,16,0,0,1,423.46,68a71.61,71.61,0,0,1-6.35,9.22l-9.27,13.16h19.1v5Z"/><path class="cls-6" d="M724.32,68.38a6.25,6.25,0,0,0,5.29-2.21,9.45,9.45,0,0,0,1.7-5.92,9.39,9.39,0,0,0-1.71-5.84,5.91,5.91,0,0,0-5-2.25,6.42,6.42,0,0,0-5,2.25,8.35,8.35,0,0,0-2,5.75H711.1L711,60a11.66,11.66,0,0,1,3.74-9.19,13.69,13.69,0,0,1,9.81-3.7q6.2,0,9.84,3.43t3.64,9.79a11.47,11.47,0,0,1-6.5,10.45A11.05,11.05,0,0,1,736.89,75a12.93,12.93,0,0,1,1.86,7.12q0,6.46-4,10.13A14.41,14.41,0,0,1,724.58,96a15,15,0,0,1-9.91-3.54,11.56,11.56,0,0,1-4.1-9.74l0.07-.2h6.43a8.87,8.87,0,0,0,2.11,6,7.3,7.3,0,0,0,10.85,0,9.48,9.48,0,0,0,2-6.32q0-4.47-2-6.66a7.36,7.36,0,0,0-5.78-2.19h-4.57v-5h4.57Z"/><text class="cls-7" transform="translate(9.75 168.27)">SOLICITÁ TU CÓDIGO ÚNICO</text><text class="cls-7" transform="translate(374.27 168.27)">INSCRIBITE</text><text class="cls-7" transform="translate(663.97 168.27)">A<tspan x="9.27" y="0">CCEDÉ A </tspan><tspan x="74.16" y="0">L</tspan><tspan x="82.15" y="0">A RED</tspan></text></svg>